<mxfile host="app.diagrams.net" modified="2020-10-25T09:07:38.029Z" agent="5.0 (Windows NT 10.0; Win64; x64) AppleWebKit/537.36 (KHTML, like Gecko) Chrome/86.0.4240.111 Safari/537.36 Edg/86.0.622.51" etag="0M2ohtM-q3zY5jgVfQiK" version="13.8.2" type="github">
  <diagram id="ya9GMQQnRwkiTx2ZBXto" name="Page-1">
    <mxGraphModel dx="1038" dy="580" grid="1" gridSize="10" guides="1" tooltips="1" connect="1" arrows="1" fold="1" page="1" pageScale="1" pageWidth="827" pageHeight="1169" math="0" shadow="0">
      <root>
        <mxCell id="0" />
        <mxCell id="1" parent="0" />
        <mxCell id="nUgzwUtLfXvwrBabzCKi-18" value="User" style="shape=table;startSize=30;container=1;collapsible=1;childLayout=tableLayout;fixedRows=1;rowLines=0;fontStyle=1;align=center;resizeLast=1;" vertex="1" parent="1">
          <mxGeometry x="40" y="280" width="260" height="340" as="geometry" />
        </mxCell>
        <mxCell id="nUgzwUtLfXvwrBabzCKi-19" value="" style="shape=partialRectangle;collapsible=0;dropTarget=0;pointerEvents=0;fillColor=none;top=0;left=0;bottom=1;right=0;points=[[0,0.5],[1,0.5]];portConstraint=eastwest;" vertex="1" parent="nUgzwUtLfXvwrBabzCKi-18">
          <mxGeometry y="30" width="260" height="30" as="geometry" />
        </mxCell>
        <mxCell id="nUgzwUtLfXvwrBabzCKi-20" value="setting" style="shape=partialRectangle;connectable=0;fillColor=none;top=0;left=0;bottom=0;right=0;fontStyle=1;overflow=hidden;" vertex="1" parent="nUgzwUtLfXvwrBabzCKi-19">
          <mxGeometry width="100" height="30" as="geometry" />
        </mxCell>
        <mxCell id="nUgzwUtLfXvwrBabzCKi-21" value="value" style="shape=partialRectangle;connectable=0;fillColor=none;top=0;left=0;bottom=0;right=0;align=left;spacingLeft=6;fontStyle=5;overflow=hidden;" vertex="1" parent="nUgzwUtLfXvwrBabzCKi-19">
          <mxGeometry x="100" width="160" height="30" as="geometry" />
        </mxCell>
        <mxCell id="nUgzwUtLfXvwrBabzCKi-22" value="" style="shape=partialRectangle;collapsible=0;dropTarget=0;pointerEvents=0;fillColor=none;top=0;left=0;bottom=0;right=0;points=[[0,0.5],[1,0.5]];portConstraint=eastwest;" vertex="1" parent="nUgzwUtLfXvwrBabzCKi-18">
          <mxGeometry y="60" width="260" height="30" as="geometry" />
        </mxCell>
        <mxCell id="nUgzwUtLfXvwrBabzCKi-23" value="ID" style="shape=partialRectangle;connectable=0;fillColor=none;top=0;left=0;bottom=0;right=0;editable=1;overflow=hidden;" vertex="1" parent="nUgzwUtLfXvwrBabzCKi-22">
          <mxGeometry width="100" height="30" as="geometry" />
        </mxCell>
        <mxCell id="nUgzwUtLfXvwrBabzCKi-24" value="ObjectID" style="shape=partialRectangle;connectable=0;fillColor=none;top=0;left=0;bottom=0;right=0;align=left;spacingLeft=6;overflow=hidden;" vertex="1" parent="nUgzwUtLfXvwrBabzCKi-22">
          <mxGeometry x="100" width="160" height="30" as="geometry" />
        </mxCell>
        <mxCell id="nUgzwUtLfXvwrBabzCKi-25" value="" style="shape=partialRectangle;collapsible=0;dropTarget=0;pointerEvents=0;fillColor=none;top=0;left=0;bottom=0;right=0;points=[[0,0.5],[1,0.5]];portConstraint=eastwest;" vertex="1" parent="nUgzwUtLfXvwrBabzCKi-18">
          <mxGeometry y="90" width="260" height="30" as="geometry" />
        </mxCell>
        <mxCell id="nUgzwUtLfXvwrBabzCKi-26" value="email" style="shape=partialRectangle;connectable=0;fillColor=none;top=0;left=0;bottom=0;right=0;editable=1;overflow=hidden;" vertex="1" parent="nUgzwUtLfXvwrBabzCKi-25">
          <mxGeometry width="100" height="30" as="geometry" />
        </mxCell>
        <mxCell id="nUgzwUtLfXvwrBabzCKi-27" value="String" style="shape=partialRectangle;connectable=0;fillColor=none;top=0;left=0;bottom=0;right=0;align=left;spacingLeft=6;overflow=hidden;" vertex="1" parent="nUgzwUtLfXvwrBabzCKi-25">
          <mxGeometry x="100" width="160" height="30" as="geometry" />
        </mxCell>
        <mxCell id="nUgzwUtLfXvwrBabzCKi-28" value="" style="shape=partialRectangle;collapsible=0;dropTarget=0;pointerEvents=0;fillColor=none;top=0;left=0;bottom=0;right=0;points=[[0,0.5],[1,0.5]];portConstraint=eastwest;" vertex="1" parent="nUgzwUtLfXvwrBabzCKi-18">
          <mxGeometry y="120" width="260" height="30" as="geometry" />
        </mxCell>
        <mxCell id="nUgzwUtLfXvwrBabzCKi-29" value="password" style="shape=partialRectangle;connectable=0;fillColor=none;top=0;left=0;bottom=0;right=0;editable=1;overflow=hidden;" vertex="1" parent="nUgzwUtLfXvwrBabzCKi-28">
          <mxGeometry width="100" height="30" as="geometry" />
        </mxCell>
        <mxCell id="nUgzwUtLfXvwrBabzCKi-30" value="String" style="shape=partialRectangle;connectable=0;fillColor=none;top=0;left=0;bottom=0;right=0;align=left;spacingLeft=6;overflow=hidden;" vertex="1" parent="nUgzwUtLfXvwrBabzCKi-28">
          <mxGeometry x="100" width="160" height="30" as="geometry" />
        </mxCell>
        <mxCell id="nUgzwUtLfXvwrBabzCKi-31" value="avatar" style="shape=partialRectangle;connectable=0;fillColor=none;top=0;left=0;bottom=0;right=0;editable=1;overflow=hidden;" vertex="1" parent="1">
          <mxGeometry x="40" y="430" width="100" height="30" as="geometry" />
        </mxCell>
        <mxCell id="nUgzwUtLfXvwrBabzCKi-32" value="String" style="shape=partialRectangle;connectable=0;fillColor=none;top=0;left=0;bottom=0;right=0;align=left;spacingLeft=6;overflow=hidden;" vertex="1" parent="1">
          <mxGeometry x="140" y="430" width="80" height="30" as="geometry" />
        </mxCell>
        <mxCell id="nUgzwUtLfXvwrBabzCKi-33" value="dickSpace" style="text;html=1;align=center;verticalAlign=middle;resizable=0;points=[];autosize=1;" vertex="1" parent="1">
          <mxGeometry x="55" y="470" width="70" height="20" as="geometry" />
        </mxCell>
        <mxCell id="nUgzwUtLfXvwrBabzCKi-34" value="number default 1024**3*10" style="text;html=1;align=center;verticalAlign=middle;resizable=0;points=[];autosize=1;" vertex="1" parent="1">
          <mxGeometry x="140" y="470" width="160" height="20" as="geometry" />
        </mxCell>
        <mxCell id="nUgzwUtLfXvwrBabzCKi-35" value="usedSpace" style="text;html=1;align=center;verticalAlign=middle;resizable=0;points=[];autosize=1;" vertex="1" parent="1">
          <mxGeometry x="50" y="500" width="80" height="20" as="geometry" />
        </mxCell>
        <mxCell id="nUgzwUtLfXvwrBabzCKi-36" value="number default 0" style="text;html=1;align=center;verticalAlign=middle;resizable=0;points=[];autosize=1;" vertex="1" parent="1">
          <mxGeometry x="140" y="500" width="110" height="20" as="geometry" />
        </mxCell>
        <mxCell id="nUgzwUtLfXvwrBabzCKi-37" value="Files" style="shape=table;startSize=30;container=1;collapsible=1;childLayout=tableLayout;fixedRows=1;rowLines=0;fontStyle=1;align=center;resizeLast=1;" vertex="1" parent="1">
          <mxGeometry x="360" y="280" width="260" height="340" as="geometry" />
        </mxCell>
        <mxCell id="nUgzwUtLfXvwrBabzCKi-38" value="" style="shape=partialRectangle;collapsible=0;dropTarget=0;pointerEvents=0;fillColor=none;top=0;left=0;bottom=1;right=0;points=[[0,0.5],[1,0.5]];portConstraint=eastwest;" vertex="1" parent="nUgzwUtLfXvwrBabzCKi-37">
          <mxGeometry y="30" width="260" height="30" as="geometry" />
        </mxCell>
        <mxCell id="nUgzwUtLfXvwrBabzCKi-39" value="setting" style="shape=partialRectangle;connectable=0;fillColor=none;top=0;left=0;bottom=0;right=0;fontStyle=1;overflow=hidden;" vertex="1" parent="nUgzwUtLfXvwrBabzCKi-38">
          <mxGeometry width="100" height="30" as="geometry" />
        </mxCell>
        <mxCell id="nUgzwUtLfXvwrBabzCKi-40" value="value" style="shape=partialRectangle;connectable=0;fillColor=none;top=0;left=0;bottom=0;right=0;align=left;spacingLeft=6;fontStyle=5;overflow=hidden;" vertex="1" parent="nUgzwUtLfXvwrBabzCKi-38">
          <mxGeometry x="100" width="160" height="30" as="geometry" />
        </mxCell>
        <mxCell id="nUgzwUtLfXvwrBabzCKi-41" value="" style="shape=partialRectangle;collapsible=0;dropTarget=0;pointerEvents=0;fillColor=none;top=0;left=0;bottom=0;right=0;points=[[0,0.5],[1,0.5]];portConstraint=eastwest;" vertex="1" parent="nUgzwUtLfXvwrBabzCKi-37">
          <mxGeometry y="60" width="260" height="30" as="geometry" />
        </mxCell>
        <mxCell id="nUgzwUtLfXvwrBabzCKi-42" value="ID" style="shape=partialRectangle;connectable=0;fillColor=none;top=0;left=0;bottom=0;right=0;editable=1;overflow=hidden;" vertex="1" parent="nUgzwUtLfXvwrBabzCKi-41">
          <mxGeometry width="100" height="30" as="geometry" />
        </mxCell>
        <mxCell id="nUgzwUtLfXvwrBabzCKi-43" value="ObjectID" style="shape=partialRectangle;connectable=0;fillColor=none;top=0;left=0;bottom=0;right=0;align=left;spacingLeft=6;overflow=hidden;" vertex="1" parent="nUgzwUtLfXvwrBabzCKi-41">
          <mxGeometry x="100" width="160" height="30" as="geometry" />
        </mxCell>
        <mxCell id="nUgzwUtLfXvwrBabzCKi-44" value="" style="shape=partialRectangle;collapsible=0;dropTarget=0;pointerEvents=0;fillColor=none;top=0;left=0;bottom=0;right=0;points=[[0,0.5],[1,0.5]];portConstraint=eastwest;" vertex="1" parent="nUgzwUtLfXvwrBabzCKi-37">
          <mxGeometry y="90" width="260" height="30" as="geometry" />
        </mxCell>
        <mxCell id="nUgzwUtLfXvwrBabzCKi-45" value="name" style="shape=partialRectangle;connectable=0;fillColor=none;top=0;left=0;bottom=0;right=0;editable=1;overflow=hidden;" vertex="1" parent="nUgzwUtLfXvwrBabzCKi-44">
          <mxGeometry width="100" height="30" as="geometry" />
        </mxCell>
        <mxCell id="nUgzwUtLfXvwrBabzCKi-46" value="String" style="shape=partialRectangle;connectable=0;fillColor=none;top=0;left=0;bottom=0;right=0;align=left;spacingLeft=6;overflow=hidden;" vertex="1" parent="nUgzwUtLfXvwrBabzCKi-44">
          <mxGeometry x="100" width="160" height="30" as="geometry" />
        </mxCell>
        <mxCell id="nUgzwUtLfXvwrBabzCKi-47" value="" style="shape=partialRectangle;collapsible=0;dropTarget=0;pointerEvents=0;fillColor=none;top=0;left=0;bottom=0;right=0;points=[[0,0.5],[1,0.5]];portConstraint=eastwest;" vertex="1" parent="nUgzwUtLfXvwrBabzCKi-37">
          <mxGeometry y="120" width="260" height="30" as="geometry" />
        </mxCell>
        <mxCell id="nUgzwUtLfXvwrBabzCKi-48" value="type" style="shape=partialRectangle;connectable=0;fillColor=none;top=0;left=0;bottom=0;right=0;editable=1;overflow=hidden;" vertex="1" parent="nUgzwUtLfXvwrBabzCKi-47">
          <mxGeometry width="100" height="30" as="geometry" />
        </mxCell>
        <mxCell id="nUgzwUtLfXvwrBabzCKi-49" value="String" style="shape=partialRectangle;connectable=0;fillColor=none;top=0;left=0;bottom=0;right=0;align=left;spacingLeft=6;overflow=hidden;" vertex="1" parent="nUgzwUtLfXvwrBabzCKi-47">
          <mxGeometry x="100" width="160" height="30" as="geometry" />
        </mxCell>
        <mxCell id="nUgzwUtLfXvwrBabzCKi-50" value="size" style="text;html=1;align=center;verticalAlign=middle;resizable=0;points=[];autosize=1;" vertex="1" parent="1">
          <mxGeometry x="390" y="450" width="40" height="20" as="geometry" />
        </mxCell>
        <mxCell id="nUgzwUtLfXvwrBabzCKi-51" value="Number" style="text;html=1;align=center;verticalAlign=middle;resizable=0;points=[];autosize=1;" vertex="1" parent="1">
          <mxGeometry x="470" y="450" width="60" height="20" as="geometry" />
        </mxCell>
        <mxCell id="nUgzwUtLfXvwrBabzCKi-52" value="user_id" style="text;html=1;align=center;verticalAlign=middle;resizable=0;points=[];autosize=1;" vertex="1" parent="1">
          <mxGeometry x="385" y="480" width="50" height="20" as="geometry" />
        </mxCell>
        <mxCell id="nUgzwUtLfXvwrBabzCKi-53" value="Objectid FK" style="text;html=1;align=center;verticalAlign=middle;resizable=0;points=[];autosize=1;" vertex="1" parent="1">
          <mxGeometry x="470" y="480" width="80" height="20" as="geometry" />
        </mxCell>
      </root>
    </mxGraphModel>
  </diagram>
</mxfile>
